<svg width="25" height="24" viewBox="0 0 25 24" fill="none" xmlns="http://www.w3.org/2000/svg">
<rect x="1" width="24" height="24" rx="12" fill="black"/>
<path d="M1 11.25C0.585786 11.25 0.25 11.5858 0.25 12C0.25 12.4142 0.585786 12.75 1 12.75L1 11.25ZM17.5303 12.5303C17.8232 12.2374 17.8232 11.7626 17.5303 11.4697L12.7574 6.6967C12.4645 6.4038 11.9896 6.4038 11.6967 6.6967C11.4038 6.98959 11.4038 7.46447 11.6967 7.75736L15.9393 12L11.6967 16.2426C11.4038 16.5355 11.4038 17.0104 11.6967 17.3033C11.9896 17.5962 12.4645 17.5962 12.7574 17.3033L17.5303 12.5303ZM1 12.75L17 12.75L17 11.25L1 11.25L1 12.75Z" fill="white"/>
</svg>
